<?xml version="1.0" encoding="UTF-8" standalone="no"?>
<!-- Created with Inkscape (http://www.inkscape.org/) -->

<svg
   xmlns:dc="http://purl.org/dc/elements/1.1/"
   xmlns:cc="http://creativecommons.org/ns#"
   xmlns:rdf="http://www.w3.org/1999/02/22-rdf-syntax-ns#"
   xmlns:svg="http://www.w3.org/2000/svg"
   xmlns="http://www.w3.org/2000/svg"
   xmlns:sodipodi="http://sodipodi.sourceforge.net/DTD/sodipodi-0.dtd"
   xmlns:inkscape="http://www.inkscape.org/namespaces/inkscape"
   width="744.09448"
   height="900"
   id="svg3086"
   version="1.1"
   inkscape:version="0.48.0 r9654"
   sodipodi:docname="SKIP_Kanji_method_examples_v2.svg">
  <defs id="defs3088" />
  <metadata id="metadata3091">
    <rdf:RDF>
      <cc:Work
         rdf:about="">
        <dc:format>image/svg+xml</dc:format>
        <dc:type
           rdf:resource="http://purl.org/dc/dcmitype/StillImage" />
        <dc:title></dc:title>
      </cc:Work>
    </rdf:RDF>
  </metadata>
  <g
     id="layer1"
     transform="translate(0,-152.36218)">
    <path
       d="m 285.63701,300.49047 -20.11253,0 0,5.81378 -6.91368,0 0,-59.08055 27.02621,0 0,53.26677 m -6.91368,-46.1174 -13.19885,0 0,14.77014 13.19885,0 0,-14.77014 m -13.19885,38.96802 13.19885,0 0,-17.44133 -13.19885,0 0,17.44133"
       style="font-size:78.5645752px;font-style:normal;font-variant:normal;font-weight:500;font-stretch:normal;text-indent:0;text-align:start;text-decoration:none;line-height:125%;letter-spacing:0px;word-spacing:0px;text-transform:none;direction:ltr;block-progression:tb;writing-mode:lr-tb;text-anchor:start;color:#000000;fill:#ff0000;fill-opacity:1;fill-rule:nonzero;stroke:none;stroke-width:1;marker:none;visibility:visible;font-family:Apple LiGothic;-inkscape-font-specification:Apple LiGothic Medium"
       id="path5045"
       inkscape:connector-curvature="0"
       sodipodi:nodetypes="ccccccccccccccccc" />
    <path
       inkscape:connector-curvature="0"
       style="color:#000000;fill:#ffffff;fill-opacity:1;fill-rule:nonzero;stroke:#000000;stroke-width:5;stroke-miterlimit:4;stroke-opacity:1;marker:none;visibility:visible;display:inline;overflow:visible;enable-background:accumulate"
       d="m 147.49727,663.74066 82.85714,0 0,90 -82.85714,0 z"
       id="rect4405" />
    <path
       inkscape:connector-curvature="0"
       style="color:#000000;fill:#000000;fill-opacity:1;fill-rule:nonzero;stroke:#000000;stroke-width:3;stroke-opacity:1;marker:none;visibility:visible;display:inline;overflow:visible;enable-background:accumulate"
       d="m 146.49727,863.45496 82.85714,0 0,89.99995 -82.85714,0 z"
       id="rect4407" />
    <path
       inkscape:connector-curvature="0"
       style="color:#000000;fill:#000000;fill-opacity:1;fill-rule:nonzero;stroke:#000000;stroke-width:3;stroke-opacity:1;marker:none;visibility:visible;display:inline;overflow:visible;enable-background:accumulate"
       d="m 146.49727,234.16915 82.85714,0 0,90 -82.85714,0 z"
       id="rect4399" />
    <path
       inkscape:connector-curvature="0"
       style="color:#000000;fill:#ffffff;fill-opacity:1;fill-rule:nonzero;stroke:none;stroke-width:3;marker:none;visibility:visible;display:inline;overflow:visible;enable-background:accumulate"
       d="m 186.49727,236.312 40,0 0,85.71429 -40,0 z"
       id="rect4409" />
    <path
       inkscape:connector-curvature="0"
       style="color:#000000;fill:#000000;fill-opacity:1;fill-rule:nonzero;stroke:#000000;stroke-width:3;stroke-opacity:1;marker:none;visibility:visible;display:inline;overflow:visible;enable-background:accumulate"
       d="m 146.49727,457.74059 82.85714,0 0,90 -82.85714,0 z"
       id="rect4403" />
    <path
       inkscape:connector-curvature="0"
       style="color:#000000;fill:#ffffff;fill-opacity:1;fill-rule:nonzero;stroke:none;stroke-width:3;marker:none;visibility:visible;display:inline;overflow:visible;enable-background:accumulate"
       d="m 148.64009,544.16918 0,-42.85714 78.57143,0 0,42.85714 z"
       id="rect4413" />
    <path
       d="m 325.78351,305.12578 0,1.02135 c -8e-5,2.61881 -0.49765,4.60911 -1.49273,5.97091 -0.94285,1.36178 -4.19018,2.04266 -9.74201,2.04267 l -7.93502,0 -2.12124,-7.5422 8.17071,0.31426 c 1.36173,-1e-5 2.27831,-1e-5 2.74976,0 0.15707,-1e-5 0.28801,-1e-5 0.39283,0 1.20459,-1e-5 1.91167,-0.18332 2.12124,-0.54996 0.26182,-0.31426 0.39276,-0.96896 0.39282,-1.96411 l 0,-14.06306 -18.8555,0 c -1.72846,8.79924 -6.96609,17.02232 -15.71291,24.66928 l -6.67799,-5.02814 c 6.07563,-4.92338 10.21336,-9.53249 12.4132,-13.82736 2.19977,-4.34723 3.29968,-9.79437 3.29972,-16.34143 l 0,-34.33272 32.99712,0 0,59.63051 m -7.46364,-52.5597 -17.99128,0 0,11.39186 17.99128,0 0,-11.39186 m -17.99128,30.71875 17.99128,0 0,-12.25606 -17.99128,0 0,12.25606"
       style="font-size:78.5645752px;font-style:normal;font-variant:normal;font-weight:500;font-stretch:normal;text-indent:0;text-align:start;text-decoration:none;line-height:125%;letter-spacing:0px;word-spacing:0px;text-transform:none;direction:ltr;block-progression:tb;writing-mode:lr-tb;text-anchor:start;color:#000000;fill:#000000;fill-opacity:1;fill-rule:nonzero;stroke:none;stroke-width:1;marker:none;visibility:visible;font-family:Apple LiGothic;-inkscape-font-specification:Apple LiGothic Medium"
       id="path5106"
       inkscape:connector-curvature="0"
       sodipodi:nodetypes="cccsccccccccccccsccccccccccccc" />
    <path
       inkscape:connector-curvature="0"
       id="path5466"
       style="font-size:108.72581482px;font-style:normal;font-variant:normal;font-weight:500;font-stretch:normal;line-height:125%;letter-spacing:0px;word-spacing:0px;fill:#000000;fill-opacity:1;stroke:none;font-family:Apple LiGothic;-inkscape-font-specification:Apple LiGothic Medium"
       d="m 68.399173,254.06036 0,-9.45916 20.6579,0 0,65.99658 -11.19876,0 0,-56.53742 -9.45914,0" />
    <path
       inkscape:connector-curvature="0"
       id="path5463"
       style="font-size:108.72581482px;font-style:normal;font-variant:normal;font-weight:500;font-stretch:normal;line-height:125%;letter-spacing:0px;word-spacing:0px;fill:#000000;fill-opacity:1;stroke:none;font-family:Apple LiGothic;-inkscape-font-specification:Apple LiGothic Medium"
       d="m 102.53907,525.23342 0,9.45915 -44.360127,0 16.74378,-21.20154 c 7.9732,-9.85777 12.6484,-16.01889 14.02563,-18.48338 1.44964,-2.5369 2.17448,-4.60269 2.17451,-6.19737 0.0725,-0.43486 0.10869,-0.86976 0.10873,-1.30471 -4e-5,-2.89931 -0.97857,-5.47248 -2.9356,-7.71954 -1.88461,-2.24694 -4.3853,-3.37044 -7.50208,-3.3705 -3.11683,6e-5 -5.58128,1.26853 -7.39335,3.80541 -1.73963,2.53698 -2.60944,5.61755 -2.60942,9.24169 l -11.74239,0 c 0,-6.5235 1.92082,-11.8873 5.76247,-16.09142 3.91411,-4.27648 9.20543,-6.41476 15.87397,-6.41482 6.01613,6e-5 11.08999,2.02961 15.22161,6.08864 4.131537,4.05916 6.197317,9.13302 6.197367,15.22162 -5e-5,5.72626 -4.385317,13.69948 -13.155817,23.91968 l -11.19876,13.04709 24.789477,0" />
    <path
       inkscape:connector-curvature="0"
       id="path5460"
       style="font-size:108.72581482px;font-style:normal;font-variant:normal;font-weight:500;font-stretch:normal;line-height:125%;letter-spacing:0px;word-spacing:0px;fill:#000000;fill-opacity:1;stroke:none;font-family:Apple LiGothic;-inkscape-font-specification:Apple LiGothic Medium"
       d="m 60.788363,691.50653 c 0.57987,-5.87113 2.64566,-10.51011 6.19737,-13.91691 3.5517,-3.40667 8.19066,-5.11004 13.91691,-5.11011 5.79868,8e-5 10.43764,1.66719 13.9169,5.00139 3.47919,3.33431 5.218797,7.86456 5.218837,13.59073 -4e-5,6.37863 -2.102067,10.98135 -6.306097,13.80818 5.6537,2.46448 8.480567,7.82829 8.480617,16.09141 -5e-5,6.3786 -2.06584,11.4887 -6.197367,15.33034 -4.05914,3.76917 -9.31421,5.65374 -15.76525,5.65374 -6.01618,0 -11.16253,-1.9933 -15.43906,-5.97992 -4.27656,-3.9866 -6.41483,-8.9155 -6.41483,-14.78671 l 11.19876,0 c -1e-5,3.18931 1.051,5.87121 3.15305,8.04571 2.10201,2.17453 4.74767,3.26179 7.93699,3.26179 3.26174,0 5.83492,-1.19598 7.71953,-3.58795 1.95703,-2.39197 2.93556,-5.29131 2.9356,-8.69808 -4e-5,-2.82685 -1.05106,-5.43625 -3.15305,-7.82826 -2.02958,-2.46442 -4.34906,-3.69664 -6.95846,-3.69667 -0.28996,3e-5 -0.57989,0.0363 -0.8698,0.10872 l -2.39197,0.21745 0,-7.50208 1.41344,0 c 2.75436,4e-5 5.11008,-0.94225 7.06717,-2.82687 2.02952,-1.95702 3.04429,-4.34899 3.04433,-7.1759 -4e-5,-6.74095 -3.04436,-10.11145 -9.13297,-10.1115 -6.01618,5e-5 -9.02426,3.37055 -9.02424,10.1115 l -10.54641,0" />
    <path
       inkscape:connector-curvature="0"
       id="path5457"
       style="font-size:108.72581482px;font-style:normal;font-variant:normal;font-weight:500;font-stretch:normal;line-height:125%;letter-spacing:0px;word-spacing:0px;fill:#000000;fill-opacity:1;stroke:none;font-family:Apple LiGothic;-inkscape-font-specification:Apple LiGothic Medium"
       d="m 104.06124,920.3605 0,8.58933 -7.828257,0 0,12.50347 -10.32896,0 0,-12.50347 -30.00832,0 0,-4.89265 29.4647,-49.79642 10.87258,0 0,46.09974 7.828257,0 m -18.157217,-30.44322 -16.96122,30.44322 16.96122,0 0,-30.44322" />
    <path
       inkscape:connector-curvature="0"
       id="path5446"
       style="font-size:37.52811432px;font-style:normal;font-variant:normal;font-weight:500;font-stretch:normal;line-height:125%;letter-spacing:0px;word-spacing:0px;fill:#000000;fill-opacity:1;stroke:none;font-family:Apple LiGothic;-inkscape-font-specification:Apple LiGothic Medium"
       d="m 263.51188,336.22588 0,-3.26494 7.13035,0 0,22.77956 -3.8654,0 0,-19.51462 -3.26495,0" />
    <path
       inkscape:connector-curvature="0"
       id="path5448"
       style="font-size:37.52811432px;font-style:normal;font-variant:normal;font-weight:500;font-stretch:normal;line-height:125%;letter-spacing:0px;word-spacing:0px;fill:#000000;fill-opacity:1;stroke:none;font-family:Apple LiGothic;-inkscape-font-specification:Apple LiGothic Medium"
       d="m 285.2348,344.33197 0,3.45258 -7.35551,0 0,-3.45258 7.35551,0" />
    <path
       inkscape:connector-curvature="0"
       id="path5450"
       style="font-size:37.52811432px;font-style:normal;font-variant:normal;font-weight:500;font-stretch:normal;line-height:125%;letter-spacing:0px;word-spacing:0px;fill:#ff0000;fill-opacity:1;stroke:none;font-family:Apple LiGothic;-inkscape-font-specification:Apple LiGothic Medium"
       d="m 303.23422,348.46005 0,2.96472 -2.70202,0 0,4.31573 -3.56517,0 0,-4.31573 -10.35776,0 0,-1.68876 10.17012,-17.18787 3.75281,0 0,15.91192 2.70202,0 m -6.26719,-10.50787 -5.85439,10.50787 5.85439,0 0,-10.50787" />
    <path
       inkscape:connector-curvature="0"
       id="path5452"
       style="font-size:37.52811432px;font-style:normal;font-variant:normal;font-weight:500;font-stretch:normal;line-height:125%;letter-spacing:0px;word-spacing:0px;fill:#000000;fill-opacity:1;stroke:none;font-family:Apple LiGothic;-inkscape-font-specification:Apple LiGothic Medium"
       d="m 312.64792,344.33197 0,3.45258 -7.35551,0 0,-3.45258 7.35551,0" />
    <path
       inkscape:connector-curvature="0"
       id="path5454"
       style="font-size:37.52811432px;font-style:normal;font-variant:normal;font-weight:500;font-stretch:normal;line-height:125%;letter-spacing:0px;word-spacing:0px;fill:#000000;fill-opacity:1;stroke:none;font-family:Apple LiGothic;-inkscape-font-specification:Apple LiGothic Medium"
       d="m 330.64734,348.46005 0,2.96472 -2.70203,0 0,4.31573 -3.56517,0 0,-4.31573 -10.35776,0 0,-1.68876 10.17012,-17.18787 3.75281,0 0,15.91192 2.70203,0 m -6.2672,-10.50787 -5.85438,10.50787 5.85438,0 0,-10.50787" />
    <path
       inkscape:connector-curvature="0"
       id="path5424"
       style="font-size:37.52811432px;font-style:normal;font-variant:normal;font-weight:500;font-stretch:normal;line-height:125%;letter-spacing:0px;word-spacing:0px;fill:#000000;fill-opacity:1;stroke:none;font-family:Apple LiGothic;-inkscape-font-specification:Apple LiGothic Medium"
       d="m 275.29571,558.18988 0,3.26495 -15.31147,0 5.77933,-7.31799 c 2.75205,-3.40253 4.36576,-5.52912 4.84113,-6.37977 0.50036,-0.87565 0.75055,-1.58868 0.75056,-2.13911 0.025,-0.15009 0.0375,-0.30021 0.0375,-0.45033 -1e-5,-1.00074 -0.33777,-1.8889 -1.01326,-2.6645 -0.6505,-0.77556 -1.51364,-1.16335 -2.58944,-1.16337 -1.07581,2e-5 -1.92645,0.43785 -2.55191,1.31348 -0.60046,0.87568 -0.90068,1.93897 -0.90068,3.18989 l -4.05303,0 c 0,-2.25167 0.66299,-4.10304 1.98899,-5.55416 1.351,-1.47608 3.17737,-2.21413 5.4791,-2.21416 2.07655,3e-5 3.82786,0.70055 5.25394,2.10158 1.42605,1.40107 2.13908,3.15238 2.1391,5.25394 -2e-5,1.9765 -1.51365,4.72856 -4.5409,8.25618 l -3.8654,4.50337 8.55641,0" />
    <path
       inkscape:connector-curvature="0"
       id="path5426"
       style="font-size:37.52811432px;font-style:normal;font-variant:normal;font-weight:500;font-stretch:normal;line-height:125%;letter-spacing:0px;word-spacing:0px;fill:#000000;fill-opacity:1;stroke:none;font-family:Apple LiGothic;-inkscape-font-specification:Apple LiGothic Medium"
       d="m 285.2348,550.04628 0,3.45259 -7.35551,0 0,-3.45259 7.35551,0" />
    <path
       inkscape:connector-curvature="0"
       id="path5428"
       style="font-size:37.52811432px;font-style:normal;font-variant:normal;font-weight:500;font-stretch:normal;line-height:125%;letter-spacing:0px;word-spacing:0px;fill:#000000;fill-opacity:1;stroke:none;font-family:Apple LiGothic;-inkscape-font-specification:Apple LiGothic Medium"
       d="m 294.34006,541.94021 -0.90068,4.09056 1.76383,-0.075 c 2.17662,0 3.94044,0.77558 5.29146,2.32673 1.37602,1.52615 2.06403,3.39005 2.06405,5.59169 -2e-5,2.45184 -0.76309,4.42832 -2.28922,5.92944 -1.52615,1.50112 -3.52765,2.25169 -6.0045,2.25169 -2.75206,0 -5.00375,-1.00075 -6.75506,-3.00225 l 1.12585,-3.30248 c 1.45108,2.02653 3.22741,3.03978 5.32899,3.03978 1.30096,0 2.40179,-0.45033 3.30247,-1.35101 0.92568,-0.92569 1.38853,-2.16412 1.38854,-3.71528 -1e-5,-1.57618 -0.47537,-2.80209 -1.42607,-3.67776 -0.95072,-0.87563 -2.15162,-1.31347 -3.60269,-1.31348 -1.4511,10e-6 -2.63949,0.50038 -3.56518,1.50112 l -0.71303,0 2.36427,-11.55866 9.90742,0 0,3.26495 -7.28045,0" />
    <path
       inkscape:connector-curvature="0"
       id="path5430"
       style="font-size:37.52811432px;font-style:normal;font-variant:normal;font-weight:500;font-stretch:normal;line-height:125%;letter-spacing:0px;word-spacing:0px;fill:#000000;fill-opacity:1;stroke:none;font-family:Apple LiGothic;-inkscape-font-specification:Apple LiGothic Medium"
       d="m 312.64792,550.04628 0,3.45259 -7.35551,0 0,-3.45259 7.35551,0" />
    <path
       inkscape:connector-curvature="0"
       id="path5432"
       style="font-size:37.52811432px;font-style:normal;font-variant:normal;font-weight:500;font-stretch:normal;line-height:125%;letter-spacing:0px;word-spacing:0px;fill:#000000;fill-opacity:1;stroke:none;font-family:Apple LiGothic;-inkscape-font-specification:Apple LiGothic Medium"
       d="m 321.75318,541.94021 -0.90068,4.09056 1.76382,-0.075 c 2.17662,0 3.94044,0.77558 5.29147,2.32673 1.37601,1.52615 2.06403,3.39005 2.06404,5.59169 -1e-5,2.45184 -0.76308,4.42832 -2.28921,5.92944 -1.52616,1.50112 -3.52766,2.25169 -6.0045,2.25169 -2.75207,0 -5.00375,-1.00075 -6.75506,-3.00225 l 1.12584,-3.30248 c 1.45109,2.02653 3.22741,3.03978 5.32899,3.03978 1.30097,0 2.40179,-0.45033 3.30248,-1.35101 0.92568,-0.92569 1.38853,-2.16412 1.38854,-3.71528 -1e-5,-1.57618 -0.47537,-2.80209 -1.42607,-3.67776 -0.95072,-0.87563 -2.15162,-1.31347 -3.6027,-1.31348 -1.45109,10e-6 -2.63948,0.50038 -3.56517,1.50112 l -0.71303,0 2.36427,-11.55866 9.90742,0 0,3.26495 -7.28045,0" />
    <path
       inkscape:connector-curvature="0"
       id="path5400"
       style="font-size:37.52811432px;font-style:normal;font-variant:normal;font-weight:500;font-stretch:normal;line-height:125%;letter-spacing:0px;word-spacing:0px;fill:#000000;fill-opacity:1;stroke:none;font-family:Apple LiGothic;-inkscape-font-specification:Apple LiGothic Medium"
       d="m 260.88492,754.64224 c 0.20014,-2.02651 0.91318,-3.6277 2.1391,-4.8036 1.22591,-1.17585 2.82711,-1.76379 4.8036,-1.76382 2.00149,3e-5 3.60268,0.57546 4.8036,1.7263 1.20088,1.15088 1.80133,2.71455 1.80135,4.69101 -2e-5,2.20166 -0.72556,3.79035 -2.17663,4.76607 1.95144,0.85065 2.92717,2.70203 2.92719,5.55416 -2e-5,2.20165 -0.71305,3.96547 -2.1391,5.29147 -1.40107,1.30097 -3.21492,1.95146 -5.44158,1.95146 -2.07656,0 -3.85289,-0.68802 -5.32899,-2.06405 -1.47611,-1.37603 -2.21416,-3.0773 -2.21416,-5.10382 l 3.86539,0 c 0,1.10083 0.36277,2.02652 1.08832,2.77708 0.72554,0.75056 1.63872,1.12584 2.73955,1.12584 1.12584,0 2.014,-0.41281 2.6645,-1.23843 0.67549,-0.82561 1.01324,-1.82636 1.01326,-3.00225 -2e-5,-0.97572 -0.36279,-1.87639 -1.08832,-2.70202 -0.70053,-0.85063 -1.50113,-1.27595 -2.4018,-1.27596 -0.10008,10e-6 -0.20016,0.0125 -0.30022,0.0375 l -0.82562,0.0751 0,-2.58944 0.48786,0 c 0.95071,10e-6 1.76382,-0.32523 2.43933,-0.97573 0.70051,-0.67549 1.05078,-1.50111 1.05079,-2.47686 -1e-5,-2.32672 -1.0508,-3.49009 -3.15236,-3.49011 -2.07657,2e-5 -3.11484,1.16339 -3.11484,3.49011 l -3.64022,0" />
    <path
       inkscape:connector-curvature="0"
       id="path5402"
       style="font-size:37.52811432px;font-style:normal;font-variant:normal;font-weight:500;font-stretch:normal;line-height:125%;letter-spacing:0px;word-spacing:0px;fill:#000000;fill-opacity:1;stroke:none;font-family:Apple LiGothic;-inkscape-font-specification:Apple LiGothic Medium"
       d="m 285.2348,760.04628 0,3.45259 -7.35551,0 0,-3.45259 7.35551,0" />
    <path
       inkscape:connector-curvature="0"
       id="path5404"
       style="font-size:37.52811432px;font-style:normal;font-variant:normal;font-weight:500;font-stretch:normal;line-height:125%;letter-spacing:0px;word-spacing:0px;fill:#ff0000;fill-opacity:1;stroke:none;font-family:Apple LiGothic;-inkscape-font-specification:Apple LiGothic Medium"
       d="m 302.70883,768.18988 0,3.26495 -15.31147,0 5.77933,-7.31799 c 2.75205,-3.40252 4.36576,-5.52912 4.84112,-6.37977 0.50037,-0.87564 0.75055,-1.58867 0.75057,-2.1391 0.025,-0.15009 0.0375,-0.30021 0.0375,-0.45033 -10e-6,-1.00074 -0.33776,-1.88891 -1.01325,-2.6645 -0.6505,-0.77557 -1.51365,-1.16336 -2.58944,-1.16337 -1.07582,10e-6 -1.92645,0.43785 -2.55192,1.31348 -0.60045,0.87568 -0.90068,1.93897 -0.90067,3.18989 l -4.05304,0 c 0,-2.25167 0.663,-4.10305 1.98899,-5.55416 1.35101,-1.47608 3.17738,-2.21413 5.47911,-2.21416 2.07654,3e-5 3.82785,0.70055 5.25393,2.10158 1.42606,1.40107 2.13909,3.15238 2.13911,5.25393 -2e-5,1.9765 -1.51365,4.72856 -4.54091,8.25618 l -3.86539,4.50337 8.55641,0" />
    <path
       inkscape:connector-curvature="0"
       id="path5406"
       style="font-size:37.52811432px;font-style:normal;font-variant:normal;font-weight:500;font-stretch:normal;line-height:125%;letter-spacing:0px;word-spacing:0px;fill:#000000;fill-opacity:1;stroke:none;font-family:Apple LiGothic;-inkscape-font-specification:Apple LiGothic Medium"
       d="m 312.64792,760.04628 0,3.45259 -7.35551,0 0,-3.45259 7.35551,0" />
    <path
       inkscape:connector-curvature="0"
       id="path5408"
       style="font-size:37.52811432px;font-style:normal;font-variant:normal;font-weight:500;font-stretch:normal;line-height:125%;letter-spacing:0px;word-spacing:0px;fill:#000000;fill-opacity:1;stroke:none;font-family:Apple LiGothic;-inkscape-font-specification:Apple LiGothic Medium"
       d="m 321.75318,751.94021 -0.90068,4.09056 1.76382,-0.075 c 2.17662,10e-6 3.94044,0.77559 5.29147,2.32674 1.37601,1.52615 2.06403,3.39005 2.06404,5.59169 -1e-5,2.45184 -0.76308,4.42832 -2.28921,5.92944 -1.52616,1.50112 -3.52766,2.25169 -6.0045,2.25169 -2.75207,0 -5.00375,-1.00075 -6.75506,-3.00225 l 1.12584,-3.30248 c 1.45109,2.02653 3.22741,3.03978 5.32899,3.03978 1.30097,0 2.40179,-0.45033 3.30248,-1.35101 0.92568,-0.92569 1.38853,-2.16412 1.38854,-3.71528 -1e-5,-1.57618 -0.47537,-2.80209 -1.42607,-3.67776 -0.95072,-0.87564 -2.15162,-1.31347 -3.6027,-1.31348 -1.45109,10e-6 -2.63948,0.50038 -3.56517,1.50112 l -0.71303,0 2.36427,-11.55866 9.90742,0 0,3.26495 -7.28045,0" />
    <path
       inkscape:connector-curvature="0"
       id="path5376"
       style="font-size:37.52811432px;font-style:normal;font-variant:normal;font-weight:500;font-stretch:normal;line-height:125%;letter-spacing:0px;word-spacing:0px;fill:#000000;fill-opacity:1;stroke:none;font-family:Apple LiGothic;-inkscape-font-specification:Apple LiGothic Medium"
       d="m 275.82111,964.1744 0,2.9647 -2.70203,0 0,4.3157 -3.56517,0 0,-4.3157 -10.35776,0 0,-1.6888 10.17012,-17.1878 3.75281,0 0,15.9119 2.70203,0 m -6.2672,-10.5079 -5.85438,10.5079 5.85438,0 0,-10.5079" />
    <path
       inkscape:connector-curvature="0"
       id="path5378"
       style="font-size:37.52811432px;font-style:normal;font-variant:normal;font-weight:500;font-stretch:normal;line-height:125%;letter-spacing:0px;word-spacing:0px;fill:#000000;fill-opacity:1;stroke:none;font-family:Apple LiGothic;-inkscape-font-specification:Apple LiGothic Medium"
       d="m 285.2348,960.0463 0,3.4526 -7.35551,0 0,-3.4526 7.35551,0" />
    <path
       inkscape:connector-curvature="0"
       id="path5380"
       style="font-size:37.52811432px;font-style:normal;font-variant:normal;font-weight:500;font-stretch:normal;line-height:125%;letter-spacing:0px;word-spacing:0px;fill:#000000;fill-opacity:1;stroke:none;font-family:Apple LiGothic;-inkscape-font-specification:Apple LiGothic Medium"
       d="m 298.73085,949.726 -4.95371,7.16791 0.075,0.075 c 0.70052,-0.3253 1.55116,-0.4879 2.55192,-0.4879 1.97646,0 3.60268,0.7506 4.87865,2.2517 1.27594,1.5011 1.91392,3.265 1.91393,5.2915 -10e-6,2.3517 -0.75057,4.2782 -2.25168,5.7793 -1.50114,1.5011 -3.44009,2.2517 -5.81686,2.2517 -2.27671,0 -4.17813,-0.7131 -5.70427,-2.1391 -1.50113,-1.4511 -2.25169,-3.3275 -2.25169,-5.6292 0,-2.3018 0.92569,-4.8286 2.77708,-7.5807 l 6.04203,-8.9692 2.73955,1.9889 m 0.56292,14.4859 c -1e-5,-1.401 -0.37529,-2.5644 -1.12584,-3.4901 -0.75058,-0.9257 -1.76383,-1.3885 -3.03978,-1.3886 -1.25094,10e-5 -2.27671,0.4754 -3.07731,1.4261 -0.77558,0.9257 -1.16337,2.0891 -1.16337,3.4901 0,1.3761 0.38779,2.5269 1.16337,3.4526 0.8006,0.9007 1.82637,1.351 3.07731,1.351 1.25093,0 2.25168,-0.4503 3.00225,-1.351 0.77557,-0.9257 1.16336,-2.089 1.16337,-3.4901" />
    <path
       inkscape:connector-curvature="0"
       id="path5382"
       style="font-size:37.52811432px;font-style:normal;font-variant:normal;font-weight:500;font-stretch:normal;line-height:125%;letter-spacing:0px;word-spacing:0px;fill:#000000;fill-opacity:1;stroke:none;font-family:Apple LiGothic;-inkscape-font-specification:Apple LiGothic Medium"
       d="m 312.64792,960.0463 0,3.4526 -7.35551,0 0,-3.4526 7.35551,0" />
    <path
       inkscape:connector-curvature="0"
       id="path5384"
       style="font-size:37.52811432px;font-style:normal;font-variant:normal;font-weight:500;font-stretch:normal;line-height:125%;letter-spacing:0px;word-spacing:0px;fill:#ff0000;fill-opacity:1;stroke:none;font-family:Apple LiGothic;-inkscape-font-specification:Apple LiGothic Medium"
       d="m 318.33812,951.9402 0,-3.2649 7.13034,0 0,22.7795 -3.8654,0 0,-19.5146 -3.26494,0" />
    <path
       d="m 316.35484,478.61268 -48.64252,0 0,-25.97081 15.8817,0 c 2.71086,-2.07146 4.59057,-4.85907 5.63916,-8.36283 l 6.13786,2.3017 c -0.92072,2.19946 -2.22502,4.21983 -3.91289,6.06113 l 24.89669,0 0,25.97081 m -6.06114,-15.6899 0,-4.64175 -36.44352,0 0,4.64175 36.44352,0 m -0.0767,9.97402 0,-4.33486 -36.3668,0 0,4.33486 36.3668,0"
       style="font-size:78.5645752px;font-style:normal;font-variant:normal;font-weight:500;font-stretch:normal;text-indent:0;text-align:start;text-decoration:none;line-height:125%;letter-spacing:0px;word-spacing:0px;text-transform:none;direction:ltr;block-progression:tb;writing-mode:lr-tb;text-anchor:start;color:#000000;fill:#ff0000;fill-opacity:1;fill-rule:nonzero;stroke:none;stroke-width:1;marker:none;visibility:visible;font-family:Apple LiGothic;-inkscape-font-specification:Apple LiGothic Medium"
       id="path5063"
       inkscape:connector-curvature="0"
       sodipodi:nodetypes="ccccccccccccccccccc" />
    <path
       d="m 325.29309,726.80981 -58.80834,0 0,3.22237 -5.90769,0 0,-66.55739 62.37597,0 0,5.75424 -56.46828,0 0,51.82654 58.80834,0 0,5.75424"
       style="font-size:78.5645752px;font-style:normal;font-variant:normal;font-weight:500;font-stretch:normal;text-indent:0;text-align:start;text-decoration:none;line-height:125%;letter-spacing:0px;word-spacing:0px;text-transform:none;direction:ltr;block-progression:tb;writing-mode:lr-tb;text-anchor:start;color:#000000;fill:#ff0000;fill-opacity:1;fill-rule:nonzero;stroke:none;stroke-width:1;marker:none;visibility:visible;font-family:Apple LiGothic;-inkscape-font-specification:Apple LiGothic Medium"
       id="path5083"
       inkscape:connector-curvature="0"
       sodipodi:nodetypes="ccccccccccc" />
    <path
       d="m 323.9888,716.56727 -5.1021,4.02796 c -5.5497,-6.44474 -13.31153,-11.44452 -23.28549,-14.99938 -4.01522,6.44476 -11.96886,11.4957 -23.86092,15.15283 l -3.22238,-5.25554 c 13.06849,-4.16861 20.79196,-9.71825 23.17041,-16.64893 l -23.82256,0 0,-5.75425 25.0885,0 c 0.43472,-3.37578 0.61374,-6.93062 0.53706,-10.66452 l -11.3934,0 c -2.04598,3.98964 -4.66735,7.23759 -7.86413,9.74385 l -5.02537,-3.95125 c 5.77979,-3.6571 9.10446,-9.67987 9.97402,-18.06832 l 5.60079,1.41938 c -3e-5,1.4578 -0.26856,3.15849 -0.80559,5.1021 l 33.56641,0 0,5.75424 -17.9916,0 c -0.20464,4.629 -0.47317,8.18384 -0.80559,10.66452 l 24.74324,0 0,5.75425 -25.51047,0 -0.3069,1.07412 c 12.65928,4.57784 21.43129,10.12748 26.31607,16.64894"
       style="font-size:78.5645752px;font-style:normal;font-variant:normal;font-weight:500;font-stretch:normal;text-indent:0;text-align:start;text-decoration:none;line-height:125%;letter-spacing:0px;word-spacing:0px;text-transform:none;direction:ltr;block-progression:tb;writing-mode:lr-tb;text-anchor:start;color:#000000;fill:#000000;fill-opacity:1;fill-rule:nonzero;stroke:none;stroke-width:1;marker:none;visibility:visible;font-family:Apple LiGothic;-inkscape-font-specification:Apple LiGothic Medium"
       id="path5100"
       inkscape:connector-curvature="0"
       sodipodi:nodetypes="ccccccccccccccccccccccccc" />
    <path
       d="m 327.90475,906.8556 0,7.14938 -12.17751,1.57129 0,14.77014 -7.85646,0 0,-13.90593 -50.51702,5.65665 -1.72842,-7.69933 11.47043,-0.94278 0,-46.3531 c -11.15795,-7.91683 54.29756,-6.6694 48.63147,0 l 0,41.24641 12.17751,-1.49273 m -53.03109,-30.01167 32.99712,0 0,-9.74201 -32.99712,0 0,9.74201 m 0,16.73426 32.99712,0 0,-10.13483 -32.99712,0 0,10.13483 m 32.99712,15.55578 0,-8.95636 -32.99712,0 0,12.25607 32.99712,-3.29971"
       style="font-size:78.5645752px;font-style:normal;font-variant:normal;font-weight:500;font-stretch:normal;text-indent:0;text-align:start;text-decoration:none;line-height:125%;letter-spacing:0px;word-spacing:0px;text-transform:none;direction:ltr;block-progression:tb;writing-mode:lr-tb;text-anchor:start;color:#000000;fill:#000000;fill-opacity:1;fill-rule:nonzero;stroke:none;stroke-width:1;marker:none;visibility:visible;font-family:Apple LiGothic;-inkscape-font-specification:Apple LiGothic Medium"
       id="path5103"
       inkscape:connector-curvature="0"
       sodipodi:nodetypes="cccccccccccccccccccccccccccc" />
    <path
       d="m 267.09577,867.10193 -11.54899,0 0,-6.99224 72.35797,0 0,6.99224 -12.17751,0 m -7.85646,0 -32.99712,0"
       style="font-size:78.5645752px;font-style:normal;font-variant:normal;font-weight:500;font-stretch:normal;text-indent:0;text-align:start;text-decoration:none;line-height:125%;letter-spacing:0px;word-spacing:0px;text-transform:none;direction:ltr;block-progression:tb;writing-mode:lr-tb;text-anchor:start;color:#000000;fill:#ff0000;fill-opacity:1;fill-rule:nonzero;stroke:none;stroke-width:1;marker:none;visibility:visible;font-family:Apple LiGothic;-inkscape-font-specification:Apple LiGothic Medium"
       id="path4976"
       inkscape:connector-curvature="0"
       sodipodi:nodetypes="cccccccc" />
    <path
       d="m 320.613,516.01524 -6.06114,0 0,-3.91288 -44.768,0 0,3.60599 -6.06113,0 0,-33.52804 56.89027,0 0,33.83494 m -6.06114,-21.59759 0,-6.52148 -19.33425,0 0,6.52148 19.33425,0 m -25.39538,0 0,-6.52148 -19.37262,0 0,6.52148 19.37262,0 m 25.39538,11.93045 0,-6.52147 -19.33425,0 0,6.52147 19.33425,0 m -25.39538,0 0,-6.52147 -19.37262,0 0,6.52147 19.37262,0"
       style="font-size:78.5645752px;font-style:normal;font-variant:normal;font-weight:500;font-stretch:normal;text-indent:0;text-align:start;text-decoration:none;line-height:125%;letter-spacing:0px;word-spacing:0px;text-transform:none;direction:ltr;block-progression:tb;writing-mode:lr-tb;text-anchor:start;color:#000000;fill:#000000;fill-opacity:1;fill-rule:nonzero;stroke:none;stroke-width:1;marker:none;visibility:visible;font-family:Apple LiGothic;-inkscape-font-specification:Apple LiGothic Medium"
       id="path5112"
       inkscape:connector-curvature="0"
       sodipodi:nodetypes="ccccccccccccccccccccccccccccc" />
    <path
       d="m 390.64715,246.3577 22.94086,0 0,50.90984 -15.79148,0 0,8.17072 -7.14938,0 0,-59.08056 m 15.79148,6.83512 -8.6421,0 0,37.23961 8.6421,0 0,-37.23961"
       style="font-size:78.5645752px;font-style:normal;font-variant:normal;font-weight:500;font-stretch:normal;text-indent:0;text-align:start;text-decoration:none;line-height:125%;letter-spacing:0px;word-spacing:0px;text-transform:none;direction:ltr;block-progression:tb;writing-mode:lr-tb;text-anchor:start;color:#000000;fill:#ff0000;fill-opacity:1;fill-rule:nonzero;stroke:none;stroke-width:1;marker:none;visibility:visible;font-family:Apple LiGothic;-inkscape-font-specification:Apple LiGothic Medium"
       id="path5054"
       inkscape:connector-curvature="0"
       sodipodi:nodetypes="cccccccccccc" />
    <path
       d="m 417.51624,258.37808 0,-6.75655 15.24152,0 0,-10.52766 7.14938,0 0,10.52766 16.57712,0 0,6.75655 -16.57712,0 0,10.60622 18.77693,0 0,6.75655 -18.38411,0 c 0.68084,1.04756 1.25698,1.93795 1.72842,2.6712 5.60421,9.00875 11.41799,15.81767 17.44134,20.42679 l -3.45684,7.62076 c -6.12811,-5.29 -11.49668,-12.07274 -16.10574,-20.34822 l 0,27.2619 -7.14938,0 0,-27.41903 c -3.71877,7.43745 -9.11353,14.37732 -16.1843,20.81961 l -4.16392,-7.22794 c 6.96602,-5.13288 13.46069,-13.06788 19.48401,-23.80507 l -16.1843,0 0,-6.75655 17.04851,0 0,-10.60622 -15.24152,0"
       style="font-size:78.5645752px;font-style:normal;font-variant:normal;font-weight:500;font-stretch:normal;text-indent:0;text-align:start;text-decoration:none;line-height:125%;letter-spacing:0px;word-spacing:0px;text-transform:none;direction:ltr;block-progression:tb;writing-mode:lr-tb;text-anchor:start;color:#000000;fill:#000000;fill-opacity:1;fill-rule:nonzero;stroke:none;stroke-width:1;marker:none;visibility:visible;font-family:Apple LiGothic;-inkscape-font-specification:Apple LiGothic Medium"
       id="path5109"
       inkscape:connector-curvature="0"
       sodipodi:nodetypes="cccccccccccccccccccccccccccc" />
    <path
       inkscape:connector-curvature="0"
       id="path5435"
       style="font-size:37.52811432px;font-style:normal;font-variant:normal;font-weight:500;font-stretch:normal;line-height:125%;letter-spacing:0px;word-spacing:0px;fill:#000000;fill-opacity:1;stroke:none;font-family:Apple LiGothic;-inkscape-font-specification:Apple LiGothic Medium"
       d="m 395.07685,334.65282 0,-3.26495 7.13034,0 0,22.77956 -3.86539,0 0,-19.51461 -3.26495,0" />
    <path
       inkscape:connector-curvature="0"
       id="path5437"
       style="font-size:37.52811432px;font-style:normal;font-variant:normal;font-weight:500;font-stretch:normal;line-height:125%;letter-spacing:0px;word-spacing:0px;fill:#000000;fill-opacity:1;stroke:none;font-family:Apple LiGothic;-inkscape-font-specification:Apple LiGothic Medium"
       d="m 416.79977,342.75889 0,3.45258 -7.35551,0 0,-3.45258 7.35551,0" />
    <path
       inkscape:connector-curvature="0"
       id="path5439"
       style="font-size:37.52811432px;font-style:normal;font-variant:normal;font-weight:500;font-stretch:normal;line-height:125%;letter-spacing:0px;word-spacing:0px;fill:#ff0000;fill-opacity:1;stroke:none;font-family:Apple LiGothic;-inkscape-font-specification:Apple LiGothic Medium"
       d="m 419.863,337.35484 c 0.20015,-2.02649 0.91318,-3.6277 2.1391,-4.8036 1.22592,-1.17586 2.82711,-1.7638 4.8036,-1.76382 2.00149,2e-5 3.60269,0.57545 4.8036,1.72629 1.20089,1.15088 1.80133,2.71455 1.80135,4.69101 -2e-5,2.20167 -0.72556,3.79037 -2.17663,4.76608 1.95145,0.85064 2.92718,2.70203 2.92719,5.55416 -10e-6,2.20165 -0.71305,3.96547 -2.1391,5.29146 -1.40106,1.30097 -3.21492,1.95146 -5.44158,1.95146 -2.07656,0 -3.85289,-0.68801 -5.32899,-2.06404 -1.47611,-1.37603 -2.21416,-3.07731 -2.21416,-5.10383 l 3.8654,0 c -1e-5,1.10083 0.36276,2.02652 1.08831,2.77708 0.72554,0.75057 1.63872,1.12585 2.73956,1.12585 1.12583,0 2.01399,-0.4128 2.66449,-1.23842 0.6755,-0.82563 1.01325,-1.82637 1.01326,-3.00225 -10e-6,-0.97573 -0.36278,-1.8764 -1.08831,-2.70203 -0.70054,-0.85062 -1.50114,-1.27594 -2.4018,-1.27596 -0.10009,10e-6 -0.20016,0.0125 -0.30023,0.0375 l -0.82562,0.0751 0,-2.58944 0.48787,0 c 0.9507,2e-5 1.76381,-0.32523 2.43933,-0.97573 0.70051,-0.6755 1.05077,-1.50111 1.05078,-2.47685 -10e-6,-2.32673 -1.0508,-3.4901 -3.15236,-3.49012 -2.07656,2e-5 -3.11484,1.16339 -3.11483,3.49012 l -3.64023,0" />
    <path
       inkscape:connector-curvature="0"
       id="path5441"
       style="font-size:37.52811432px;font-style:normal;font-variant:normal;font-weight:500;font-stretch:normal;line-height:125%;letter-spacing:0px;word-spacing:0px;fill:#000000;fill-opacity:1;stroke:none;font-family:Apple LiGothic;-inkscape-font-specification:Apple LiGothic Medium"
       d="m 444.21288,342.75889 0,3.45258 -7.35551,0 0,-3.45258 7.35551,0" />
    <path
       inkscape:connector-curvature="0"
       id="path5443"
       style="font-size:37.52811432px;font-style:normal;font-variant:normal;font-weight:500;font-stretch:normal;line-height:125%;letter-spacing:0px;word-spacing:0px;fill:#000000;fill-opacity:1;stroke:none;font-family:Apple LiGothic;-inkscape-font-specification:Apple LiGothic Medium"
       d="m 453.31814,334.65282 -0.90067,4.09057 1.76382,-0.0751 c 2.17662,2e-5 3.94044,0.7756 5.29146,2.32673 1.37602,1.52616 2.06403,3.39005 2.06405,5.5917 -2e-5,2.45184 -0.76309,4.42831 -2.28921,5.92944 -1.52616,1.50113 -3.52766,2.25169 -6.0045,2.25169 -2.75207,0 -5.00375,-1.00075 -6.75506,-3.00225 l 1.12584,-3.30248 c 1.45108,2.02652 3.22741,3.03978 5.32899,3.03978 1.30097,0 2.40179,-0.45033 3.30248,-1.35102 0.92568,-0.92568 1.38852,-2.16411 1.38854,-3.71528 -2e-5,-1.57617 -0.47537,-2.80209 -1.42607,-3.67775 -0.95072,-0.87565 -2.15162,-1.31348 -3.6027,-1.31349 -1.45109,1e-5 -2.63948,0.50039 -3.56517,1.50113 l -0.71304,0 2.36428,-11.55866 9.90742,0 0,3.26495 -7.28046,0" />
    <path
       inkscape:connector-curvature="0"
       id="path5411"
       style="font-size:37.52811432px;font-style:normal;font-variant:normal;font-weight:500;font-stretch:normal;line-height:125%;letter-spacing:0px;word-spacing:0px;fill:#000000;fill-opacity:1;stroke:none;font-family:Apple LiGothic;-inkscape-font-specification:Apple LiGothic Medium"
       d="m 395.29018,556.61681 0,3.26495 -15.31147,0 5.77933,-7.31799 c 2.75206,-3.40253 4.36576,-5.52911 4.84113,-6.37977 0.50036,-0.87565 0.75055,-1.58868 0.75056,-2.13911 0.025,-0.15008 0.0375,-0.30021 0.0375,-0.45033 -10e-6,-1.00074 -0.33776,-1.8889 -1.01326,-2.66449 -0.6505,-0.77557 -1.51364,-1.16336 -2.58944,-1.16337 -1.07581,10e-6 -1.92645,0.43785 -2.55191,1.31348 -0.60046,0.87568 -0.90068,1.93896 -0.90068,3.18989 l -4.05303,0 c 0,-2.25167 0.66299,-4.10306 1.98899,-5.55416 1.35101,-1.47609 3.17737,-2.21414 5.4791,-2.21416 2.07655,2e-5 3.82786,0.70055 5.25394,2.10158 1.42605,1.40107 2.13909,3.15238 2.1391,5.25392 -10e-6,1.9765 -1.51365,4.72857 -4.5409,8.2562 l -3.8654,4.50337 8.55641,0" />
    <path
       inkscape:connector-curvature="0"
       id="path5413"
       style="font-size:37.52811432px;font-style:normal;font-variant:normal;font-weight:500;font-stretch:normal;line-height:125%;letter-spacing:0px;word-spacing:0px;fill:#000000;fill-opacity:1;stroke:none;font-family:Apple LiGothic;-inkscape-font-specification:Apple LiGothic Medium"
       d="m 405.22927,548.47321 0,3.45259 -7.35551,0 0,-3.45259 7.35551,0" />
    <path
       inkscape:connector-curvature="0"
       id="path5415"
       style="font-size:37.52811432px;font-style:normal;font-variant:normal;font-weight:500;font-stretch:normal;line-height:125%;letter-spacing:0px;word-spacing:0px;fill:#ff0000;fill-opacity:1;stroke:none;font-family:Apple LiGothic;-inkscape-font-specification:Apple LiGothic Medium"
       d="m 408.2925,543.06916 c 0.20015,-2.0265 0.91319,-3.6277 2.13911,-4.8036 1.22591,-1.17585 2.82711,-1.76379 4.8036,-1.76382 2.00148,3e-5 3.60268,0.57546 4.80359,1.7263 1.20089,1.15088 1.80134,2.71455 1.80135,4.69101 -10e-6,2.20166 -0.72555,3.79035 -2.17663,4.76607 1.95145,0.85065 2.92718,2.70203 2.9272,5.55416 -2e-5,2.20165 -0.71305,3.96547 -2.13911,5.29147 -1.40106,1.30097 -3.21492,1.95146 -5.44157,1.95146 -2.07656,0 -3.85289,-0.68802 -5.32899,-2.06405 -1.47611,-1.37603 -2.21416,-3.0773 -2.21416,-5.10382 l 3.86539,0 c 0,1.10083 0.36277,2.02652 1.08832,2.77708 0.72553,0.75057 1.63872,1.12584 2.73955,1.12584 1.12583,0 2.014,-0.41281 2.6645,-1.23843 0.67549,-0.8256 1.01324,-1.82636 1.01325,-3.00225 -10e-6,-0.97572 -0.36278,-1.87639 -1.08831,-2.70202 -0.70054,-0.85063 -1.50113,-1.27595 -2.4018,-1.27596 -0.10008,10e-6 -0.20016,0.0125 -0.30022,0.0375 l -0.82562,0.0751 0,-2.58945 0.48786,0 c 0.95071,10e-6 1.76381,-0.32522 2.43933,-0.97573 0.70051,-0.67549 1.05078,-1.5011 1.05079,-2.47686 -10e-6,-2.32672 -1.0508,-3.49009 -3.15236,-3.4901 -2.07657,10e-6 -3.11484,1.16338 -3.11484,3.4901 l -3.64023,0" />
    <path
       inkscape:connector-curvature="0"
       id="path5417"
       style="font-size:37.52811432px;font-style:normal;font-variant:normal;font-weight:500;font-stretch:normal;line-height:125%;letter-spacing:0px;word-spacing:0px;fill:#000000;fill-opacity:1;stroke:none;font-family:Apple LiGothic;-inkscape-font-specification:Apple LiGothic Medium"
       d="m 432.64239,548.47321 0,3.45259 -7.35551,0 0,-3.45259 7.35551,0" />
    <path
       inkscape:connector-curvature="0"
       id="path5419"
       style="font-size:37.52811432px;font-style:normal;font-variant:normal;font-weight:500;font-stretch:normal;line-height:125%;letter-spacing:0px;word-spacing:0px;fill:#000000;fill-opacity:1;stroke:none;font-family:Apple LiGothic;-inkscape-font-specification:Apple LiGothic Medium"
       d="m 438.33259,540.36714 0,-3.26495 7.13034,0 0,22.77957 -3.86539,0 0,-19.51462 -3.26495,0" />
    <path
       inkscape:connector-curvature="0"
       id="path5421"
       style="font-size:37.52811432px;font-style:normal;font-variant:normal;font-weight:500;font-stretch:normal;line-height:125%;letter-spacing:0px;word-spacing:0px;fill:#000000;fill-opacity:1;stroke:none;font-family:Apple LiGothic;-inkscape-font-specification:Apple LiGothic Medium"
       d="m 453.15033,543.06916 c 0.20015,-2.0265 0.91318,-3.6277 2.1391,-4.8036 1.22592,-1.17585 2.82711,-1.76379 4.8036,-1.76382 2.00149,3e-5 3.60269,0.57546 4.8036,1.7263 1.20089,1.15088 1.80134,2.71455 1.80135,4.69101 -10e-6,2.20166 -0.72556,3.79035 -2.17663,4.76607 1.95145,0.85065 2.92718,2.70203 2.92719,5.55416 -10e-6,2.20165 -0.71305,3.96547 -2.1391,5.29147 -1.40106,1.30097 -3.21492,1.95146 -5.44158,1.95146 -2.07656,0 -3.85289,-0.68802 -5.32899,-2.06405 -1.47611,-1.37603 -2.21416,-3.0773 -2.21416,-5.10382 l 3.8654,0 c -1e-5,1.10083 0.36276,2.02652 1.08831,2.77708 0.72554,0.75057 1.63872,1.12584 2.73956,1.12584 1.12583,0 2.01399,-0.41281 2.66449,-1.23843 0.6755,-0.8256 1.01325,-1.82636 1.01326,-3.00225 -1e-5,-0.97572 -0.36278,-1.87639 -1.08831,-2.70202 -0.70054,-0.85063 -1.50114,-1.27595 -2.4018,-1.27596 -0.10009,10e-6 -0.20016,0.0125 -0.30023,0.0375 l -0.82562,0.0751 0,-2.58945 0.48787,0 c 0.9507,10e-6 1.76381,-0.32522 2.43933,-0.97573 0.70051,-0.67549 1.05077,-1.5011 1.05078,-2.47686 -10e-6,-2.32672 -1.05079,-3.49009 -3.15236,-3.4901 -2.07656,10e-6 -3.11484,1.16338 -3.11483,3.4901 l -3.64023,0" />
    <path
       d="m 400.31059,672.52111 c -3.3521,-3.8758 -7.07082,-7.35882 -11.15617,-10.44908 l 4.47818,-4.47818 c 4.03297,2.77601 7.54219,5.65671 10.52766,8.64211 l 0.94277,0.94277 -4.79244,5.34239 m -10.84191,23.01942 c 3.14258,-3.45681 6.6256,-8.45875 10.44909,-15.00583 l -12.09894,0 0,-6.36373 19.9554,0 0,5.42096 c -2.51409,4.76628 -5.3686,9.32302 -8.56354,13.67023 -0.2619,0.31429 -0.57616,0.7333 -0.94278,1.25703 l 9.34919,0 0,4.55675 c -0.31428,1.99032 -0.73329,3.82349 -1.25703,5.49951 l -1.88555,5.81378 c 2.61879,4.81863 5.86612,7.77789 9.742,8.8778 3.9282,1.0999 11.75846,1.64985 23.49081,1.64985 8.79917,0 16.07948,-0.23569 21.84095,-0.70708 l -1.25703,7.38507 -18.8555,0 c -13.56552,-10e-6 -22.49569,-0.57615 -26.79052,-1.72842 -4.24251,-1.15229 -7.98742,-4.26868 -11.23473,-9.34918 -1.93794,3.61397 -4.53057,7.04461 -7.7779,10.29195 l -1.64985,1.64986 -4.71388,-5.34239 c 6.28516,-5.70902 10.60621,-13.14646 12.96316,-22.31234 l -10.76335,0 0,-5.26383 m 20.58392,-17.44133 0,-6.04947"
       style="font-size:78.5645752px;font-style:normal;font-variant:normal;font-weight:500;font-stretch:normal;text-indent:0;text-align:start;text-decoration:none;line-height:125%;letter-spacing:0px;word-spacing:0px;text-transform:none;direction:ltr;block-progression:tb;writing-mode:lr-tb;text-anchor:start;color:#000000;fill:#ff0000;fill-opacity:1;fill-rule:nonzero;stroke:none;stroke-width:1;marker:none;visibility:visible;font-family:Apple LiGothic;-inkscape-font-specification:Apple LiGothic Medium"
       id="path5090"
       inkscape:connector-curvature="0"
       sodipodi:nodetypes="cccscccccccccccccccsccsccsccccccc" />
    <path
       d="m 458.52694,678.0992 -48.47434,0 0,-6.04947 20.58392,0 0,-4.63531 -17.83416,0 0,-5.97091 17.83416,0 0,-4.63531 7.07081,0 0,4.63531 18.38411,0 0,5.97091 -18.38411,0 0,4.63531 20.81961,0 0,6.04947 m -23.4908,23.96219 c 0.52371,0.20953 1.8593,0.75948 4.00679,1.64986 l 3.92823,1.64986 c 1.88549,-1.5189 3.61391,-3.40445 5.18526,-5.65665 0.10469,-0.15711 0.26182,-0.36662 0.47139,-0.62852 l 5.65665,2.6712 c -0.20958,0.26189 -0.36671,0.4714 -0.47139,0.62851 -0.73334,0.99517 -2.12131,2.51408 -4.16392,4.55675 -0.26195,0.20951 -0.62858,0.52377 -1.09991,0.94277 l 4.79244,2.35694 4.63531,2.27837 -3.5354,5.73522 c -4.71394,-2.6712 -8.43266,-4.63531 -11.15617,-5.89235 l -11.39187,-5.42094 3.14259,-4.87101 m 0.47138,-4.32105 -1.72842,1.72842 -2.04268,1.80699 0,16.73425 -7.07081,0 0,-11.39186 c -0.83806,0.52377 -1.49276,0.94279 -1.96411,1.25703 -2.40935,1.62368 -5.08055,3.11641 -8.01359,4.47818 -0.47142,0.20952 -1.07374,0.49758 -1.80698,0.86421 l -4.0068,-6.36374 c 0.68087,-0.26187 1.25701,-0.47136 1.72842,-0.62851 4.76622,-1.78079 9.27059,-4.08533 13.51311,-6.91368 l 2.35694,-1.57129 -13.12029,0 0,-15.94861 42.26774,0 0,15.94861 -20.11253,0 m 13.51311,-10.21339 -28.91176,0 0,4.47817 28.91176,0 0,-4.47817"
       style="font-size:78.5645752px;font-style:normal;font-variant:normal;font-weight:500;font-stretch:normal;text-indent:0;text-align:start;text-decoration:none;line-height:125%;letter-spacing:0px;word-spacing:0px;text-transform:none;direction:ltr;block-progression:tb;writing-mode:lr-tb;text-anchor:start;color:#000000;fill:#000000;fill-opacity:1;fill-rule:nonzero;stroke:none;stroke-width:1;marker:none;visibility:visible;font-family:Apple LiGothic;-inkscape-font-specification:Apple LiGothic Medium"
       id="path5093"
       inkscape:connector-curvature="0"
       sodipodi:nodetypes="cccccccccccccccccccccccccccccccccccccccccccsccccccccccc" />
    <path
       inkscape:connector-curvature="0"
       id="path5387"
       style="font-size:37.52811432px;font-style:normal;font-variant:normal;font-weight:500;font-stretch:normal;line-height:125%;letter-spacing:0px;word-spacing:0px;fill:#000000;fill-opacity:1;stroke:none;font-family:Apple LiGothic;-inkscape-font-specification:Apple LiGothic Medium"
       d="m 380.87939,753.06916 c 0.20015,-2.0265 0.91318,-3.6277 2.1391,-4.80359 1.22591,-1.17585 2.82711,-1.76379 4.8036,-1.76382 2.00149,3e-5 3.60269,0.57546 4.8036,1.7263 1.20088,1.15088 1.80133,2.71455 1.80135,4.69101 -2e-5,2.20166 -0.72556,3.79035 -2.17663,4.76607 1.95144,0.85065 2.92717,2.70203 2.92719,5.55416 -2e-5,2.20165 -0.71305,3.96547 -2.1391,5.29147 -1.40106,1.30097 -3.21492,1.95146 -5.44158,1.95146 -2.07656,0 -3.85289,-0.68802 -5.32899,-2.06405 -1.47611,-1.37603 -2.21416,-3.0773 -2.21416,-5.10382 l 3.8654,0 c -1e-5,1.10083 0.36276,2.02652 1.08831,2.77708 0.72554,0.75056 1.63872,1.12584 2.73955,1.12584 1.12584,0 2.014,-0.41281 2.6645,-1.23843 0.67549,-0.82561 1.01325,-1.82636 1.01326,-3.00225 -10e-6,-0.97572 -0.36279,-1.87639 -1.08832,-2.70202 -0.70053,-0.85063 -1.50113,-1.27595 -2.4018,-1.27596 -0.10008,10e-6 -0.20015,0.0125 -0.30022,0.0375 l -0.82562,0.0751 0,-2.58944 0.48787,0 c 0.9507,1e-5 1.76381,-0.32523 2.43932,-0.97573 0.70052,-0.67549 1.05078,-1.50111 1.05079,-2.47686 -10e-6,-2.32672 -1.0508,-3.49009 -3.15236,-3.49011 -2.07656,2e-5 -3.11484,1.16339 -3.11483,3.49011 l -3.64023,0" />
    <path
       inkscape:connector-curvature="0"
       id="path5389"
       style="font-size:37.52811432px;font-style:normal;font-variant:normal;font-weight:500;font-stretch:normal;line-height:125%;letter-spacing:0px;word-spacing:0px;fill:#000000;fill-opacity:1;stroke:none;font-family:Apple LiGothic;-inkscape-font-specification:Apple LiGothic Medium"
       d="m 405.22927,758.47321 0,3.45259 -7.35551,0 0,-3.45259 7.35551,0" />
    <path
       inkscape:connector-curvature="0"
       id="path5391"
       style="font-size:37.52811432px;font-style:normal;font-variant:normal;font-weight:500;font-stretch:normal;line-height:125%;letter-spacing:0px;word-spacing:0px;fill:#ff0000;fill-opacity:1;stroke:none;font-family:Apple LiGothic;-inkscape-font-specification:Apple LiGothic Medium"
       d="m 408.2925,753.06916 c 0.20015,-2.0265 0.91319,-3.6277 2.13911,-4.80359 1.22591,-1.17585 2.82711,-1.76379 4.8036,-1.76382 2.00148,3e-5 3.60268,0.57546 4.80359,1.7263 1.20089,1.15088 1.80134,2.71455 1.80135,4.69101 -10e-6,2.20166 -0.72555,3.79035 -2.17663,4.76607 1.95145,0.85065 2.92718,2.70203 2.9272,5.55416 -2e-5,2.20165 -0.71305,3.96547 -2.13911,5.29147 -1.40106,1.30097 -3.21492,1.95146 -5.44157,1.95146 -2.07656,0 -3.85289,-0.68802 -5.32899,-2.06405 -1.47611,-1.37603 -2.21416,-3.0773 -2.21416,-5.10382 l 3.86539,0 c 0,1.10083 0.36277,2.02652 1.08832,2.77708 0.72553,0.75056 1.63872,1.12584 2.73955,1.12584 1.12583,0 2.014,-0.41281 2.6645,-1.23843 0.67549,-0.82561 1.01324,-1.82636 1.01325,-3.00225 -10e-6,-0.97572 -0.36278,-1.87639 -1.08831,-2.70202 -0.70054,-0.85063 -1.50113,-1.27595 -2.4018,-1.27596 -0.10008,10e-6 -0.20016,0.0125 -0.30022,0.0375 l -0.82562,0.0751 0,-2.58944 0.48786,0 c 0.95071,1e-5 1.76381,-0.32523 2.43933,-0.97573 0.70051,-0.67549 1.05078,-1.50111 1.05079,-2.47686 -10e-6,-2.32672 -1.0508,-3.49009 -3.15236,-3.49011 -2.07657,2e-5 -3.11484,1.16339 -3.11484,3.49011 l -3.64023,0" />
    <path
       inkscape:connector-curvature="0"
       id="path5393"
       style="font-size:37.52811432px;font-style:normal;font-variant:normal;font-weight:500;font-stretch:normal;line-height:125%;letter-spacing:0px;word-spacing:0px;fill:#000000;fill-opacity:1;stroke:none;font-family:Apple LiGothic;-inkscape-font-specification:Apple LiGothic Medium"
       d="m 432.64239,758.47321 0,3.45259 -7.35551,0 0,-3.45259 7.35551,0" />
    <path
       inkscape:connector-curvature="0"
       id="path5395"
       style="font-size:37.52811432px;font-style:normal;font-variant:normal;font-weight:500;font-stretch:normal;line-height:125%;letter-spacing:0px;word-spacing:0px;fill:#000000;fill-opacity:1;stroke:none;font-family:Apple LiGothic;-inkscape-font-specification:Apple LiGothic Medium"
       d="m 438.33259,750.36715 0,-3.26495 7.13034,0 0,22.77957 -3.86539,0 0,-19.51462 -3.26495,0" />
    <path
       inkscape:connector-curvature="0"
       id="path5397"
       style="font-size:37.52811432px;font-style:normal;font-variant:normal;font-weight:500;font-stretch:normal;line-height:125%;letter-spacing:0px;word-spacing:0px;fill:#000000;fill-opacity:1;stroke:none;font-family:Apple LiGothic;-inkscape-font-specification:Apple LiGothic Medium"
       d="m 468.27416,758.51075 c -2e-5,3.30247 -0.72556,6.1296 -2.17663,8.48135 -1.4511,2.32674 -3.4526,3.49012 -6.0045,3.49012 -2.5269,0 -4.51589,-1.17588 -5.96697,-3.52765 -1.45109,-2.35175 -2.17663,-5.16636 -2.17663,-8.44382 0,-3.40254 0.72554,-6.25467 2.17663,-8.55641 1.4761,-2.3017 3.4776,-3.45256 6.0045,-3.45259 2.52688,3e-5 4.51587,1.17591 5.96697,3.52764 1.45107,2.32677 2.17661,5.15388 2.17663,8.48136 m -12.57192,-0.0375 c 0,2.30173 0.4003,4.34076 1.2009,6.11708 0.8006,1.75132 1.88891,2.62697 3.26495,2.62697 1.37602,0 2.43931,-0.82561 3.18989,-2.47685 0.77557,-1.65123 1.16336,-3.7403 1.16337,-6.2672 -10e-6,-2.32673 -0.40031,-4.35325 -1.2009,-6.07955 -0.80061,-1.7513 -1.87642,-2.62695 -3.22742,-2.62697 -1.326,2e-5 -2.38929,0.9132 -3.18989,2.73955 -0.8006,1.80137 -1.2009,3.79035 -1.2009,5.96697" />
    <path
       d="m 415.67485,865.37174 28.67607,0 0,59.27676 -7.77789,0 0,0.19662 -43.9176,0 0,-0.19662 -7.69933,0 0,-59.27676 23.01942,0 c 0.68086,-1.30936 1.257,-2.7759 1.72842,-4.39962 l 1.41417,-4.39963 7.85645,0.54997 -1.49272,4.08534 -1.80699,4.16394 m -23.01942,33.62563 43.9176,0 0,-10.37053 -43.9176,0 0,10.37053 m 0,18.54124 43.9176,0 0,-11.39186 -43.9176,0 0,11.39186 m 43.9176,-44.86037 -43.9176,0 0,8.79923 43.9176,0 0,-8.79923"
       style="font-size:78.5645752px;font-style:normal;font-variant:normal;font-weight:500;font-stretch:normal;text-indent:0;text-align:start;text-decoration:none;line-height:125%;letter-spacing:0px;word-spacing:0px;text-transform:none;direction:ltr;block-progression:tb;writing-mode:lr-tb;text-anchor:start;color:#000000;fill:#000000;fill-opacity:1;fill-rule:nonzero;stroke:none;stroke-width:1;marker:none;visibility:visible;font-family:Apple LiGothic;-inkscape-font-specification:Apple LiGothic Medium"
       id="path4999"
       inkscape:connector-curvature="0"
       sodipodi:nodetypes="cccccccccccccccccccccccccccccc" />
    <path
       inkscape:connector-curvature="0"
       id="path5365"
       style="font-size:37.52811432px;font-style:normal;font-variant:normal;font-weight:500;font-stretch:normal;line-height:125%;letter-spacing:0px;word-spacing:0px;fill:#000000;fill-opacity:1;stroke:none;font-family:Apple LiGothic;-inkscape-font-specification:Apple LiGothic Medium"
       d="m 395.81558,962.60134 0,2.9647 -2.70203,0 0,4.3157 -3.56517,0 0,-4.3157 -10.35776,0 0,-1.6888 10.17012,-17.18781 3.75281,0 0,15.9119 2.70203,0 m -6.2672,-10.5079 -5.85438,10.5079 5.85438,0 0,-10.5079" />
    <path
       inkscape:connector-curvature="0"
       id="path5367"
       style="font-size:37.52811432px;font-style:normal;font-variant:normal;font-weight:500;font-stretch:normal;line-height:125%;letter-spacing:0px;word-spacing:0px;fill:#000000;fill-opacity:1;stroke:none;font-family:Apple LiGothic;-inkscape-font-specification:Apple LiGothic Medium"
       d="m 405.22927,958.47324 0,3.45259 -7.35551,0 0,-3.45259 7.35551,0" />
    <path
       inkscape:connector-curvature="0"
       id="path5369"
       style="font-size:37.52811432px;font-style:normal;font-variant:normal;font-weight:500;font-stretch:normal;line-height:125%;letter-spacing:0px;word-spacing:0px;fill:#000000;fill-opacity:1;stroke:none;font-family:Apple LiGothic;-inkscape-font-specification:Apple LiGothic Medium"
       d="m 418.72532,948.15293 -4.95371,7.1679 0.0751,0.075 c 0.70051,-0.3253 1.55115,-0.4879 2.55191,-0.4879 1.97647,0 3.60268,0.7506 4.87865,2.2517 1.27594,1.5011 1.91392,3.265 1.91394,5.2915 -2e-5,2.3517 -0.75058,4.2782 -2.25169,5.7793 -1.50114,1.5011 -3.44009,2.2517 -5.81686,2.2517 -2.27671,0 -4.17813,-0.7131 -5.70427,-2.1391 -1.50113,-1.4511 -2.25169,-3.3275 -2.25169,-5.6292 0,-2.3018 0.92569,-4.8286 2.77708,-7.5807 l 6.04203,-8.9692 2.73955,1.9889 m 0.56292,14.4859 c -10e-6,-1.401 -0.37529,-2.5644 -1.12584,-3.4901 -0.75057,-0.9257 -1.76383,-1.3885 -3.03978,-1.3886 -1.25094,10e-5 -2.27671,0.4754 -3.0773,1.4261 -0.77559,0.9257 -1.16338,2.0891 -1.16338,3.4901 0,1.3761 0.38779,2.5269 1.16338,3.4526 0.80059,0.9007 1.82636,1.351 3.0773,1.351 1.25093,0 2.25168,-0.4503 3.00225,-1.351 0.77557,-0.9257 1.16336,-2.089 1.16337,-3.4901" />
    <path
       inkscape:connector-curvature="0"
       id="path5371"
       style="font-size:37.52811432px;font-style:normal;font-variant:normal;font-weight:500;font-stretch:normal;line-height:125%;letter-spacing:0px;word-spacing:0px;fill:#000000;fill-opacity:1;stroke:none;font-family:Apple LiGothic;-inkscape-font-specification:Apple LiGothic Medium"
       d="m 432.64239,958.47324 0,3.45259 -7.35551,0 0,-3.45259 7.35551,0" />
    <path
       inkscape:connector-curvature="0"
       id="path5373"
       style="font-size:37.52811432px;font-style:normal;font-variant:normal;font-weight:500;font-stretch:normal;line-height:125%;letter-spacing:0px;word-spacing:0px;fill:#ff0000;fill-opacity:1;stroke:none;font-family:Apple LiGothic;-inkscape-font-specification:Apple LiGothic Medium"
       d="m 450.11642,966.61684 0,3.2649 -15.31147,0 5.77933,-7.318 c 2.75205,-3.4025 4.36576,-5.5291 4.84112,-6.3797 0.50037,-0.8757 0.75055,-1.5887 0.75057,-2.1391 0.025,-0.1501 0.0375,-0.3002 0.0375,-0.4504 -10e-6,-1.0007 -0.33776,-1.8889 -1.01326,-2.6645 -0.65049,-0.7755 -1.51364,-1.1633 -2.58944,-1.1633 -1.07581,0 -1.92645,0.4378 -2.55191,1.3134 -0.60045,0.8757 -0.90068,1.939 -0.90067,3.1899 l -4.05304,0 c 0,-2.2516 0.663,-4.103 1.98899,-5.5541 1.35101,-1.4761 3.17738,-2.2142 5.47911,-2.2142 2.07654,0 3.82785,0.7006 5.25393,2.1016 1.42606,1.4011 2.13909,3.1524 2.1391,5.2539 -10e-6,1.9765 -1.51364,4.7286 -4.5409,8.2562 l -3.86539,4.5034 8.55641,0" />
    <path
       inkscape:connector-curvature="0"
       id="path5362"
       style="font-size:78.5645752px;font-style:normal;font-variant:normal;font-weight:500;font-stretch:normal;text-indent:0;text-align:start;text-decoration:none;line-height:125%;letter-spacing:0px;word-spacing:0px;text-transform:none;direction:ltr;block-progression:tb;writing-mode:lr-tb;text-anchor:start;color:#000000;fill:#000000;fill-opacity:1;fill-rule:nonzero;stroke:none;stroke-width:1;marker:none;visibility:visible;font-family:Apple LiGothic;-inkscape-font-specification:Apple LiGothic Medium"
       d="m 511.20254,899.3902 25.0621,0 0,-5.49952 -23.88363,0 0,-6.36373 23.88363,0 0,-6.4423 -30.56162,0 0,-6.678 30.56162,0 0,-5.81377 -23.88363,0 0,-6.36373 23.88363,0 0,-5.73522 7.7779,0 0,5.73522 26.00487,0 0,12.1775 8.01359,0 0,6.678 -8.01359,0 0,12.80602 -26.00487,0 0,5.49952 29.77597,0 0,6.44229 -29.77597,0 0,5.97091 34.01846,0 0,6.75655 -34.01846,0 0,10.2134 -7.7779,0 0,-10.2134 -30.56162,0 0,-6.75655 30.56162,0 0,-5.97091 -25.0621,0 0,-6.44229 m 51.30267,-24.98354 0,-5.81377 -18.46267,0 0,5.81377 18.46267,0 m 0,13.12029 0,-6.4423 -18.46267,0 0,6.4423 18.46267,0" />
    <path
       inkscape:connector-curvature="0"
       id="path5351"
       style="font-size:37.52811432px;font-style:normal;font-variant:normal;font-weight:500;font-stretch:normal;line-height:125%;letter-spacing:0px;word-spacing:0px;fill:#000000;fill-opacity:1;stroke:none;font-family:Apple LiGothic;-inkscape-font-specification:Apple LiGothic Medium"
       d="m 523.10037,962.60134 0,2.9647 -2.70203,0 0,4.3157 -3.56517,0 0,-4.3157 -10.35776,0 0,-1.6888 10.17012,-17.18781 3.75281,0 0,15.9119 2.70203,0 m -6.2672,-10.5079 -5.85438,10.5079 5.85438,0 0,-10.5079" />
    <path
       inkscape:connector-curvature="0"
       id="path5353"
       style="font-size:37.52811432px;font-style:normal;font-variant:normal;font-weight:500;font-stretch:normal;line-height:125%;letter-spacing:0px;word-spacing:0px;fill:#000000;fill-opacity:1;stroke:none;font-family:Apple LiGothic;-inkscape-font-specification:Apple LiGothic Medium"
       d="m 532.51406,958.47324 0,3.45259 -7.35551,0 0,-3.45259 7.35551,0" />
    <path
       inkscape:connector-curvature="0"
       id="path5355"
       style="font-size:37.52811432px;font-style:normal;font-variant:normal;font-weight:500;font-stretch:normal;line-height:125%;letter-spacing:0px;word-spacing:0px;fill:#000000;fill-opacity:1;stroke:none;font-family:Apple LiGothic;-inkscape-font-specification:Apple LiGothic Medium"
       d="m 546.01011,948.15293 -4.95371,7.1679 0.0751,0.075 c 0.70051,-0.3253 1.55115,-0.4879 2.55191,-0.4879 1.97647,0 3.60268,0.7506 4.87865,2.2517 1.27594,1.5011 1.91392,3.265 1.91394,5.2915 -2e-5,2.3517 -0.75058,4.2782 -2.25169,5.7793 -1.50114,1.5011 -3.44009,2.2517 -5.81686,2.2517 -2.27671,0 -4.17813,-0.7131 -5.70427,-2.1391 -1.50113,-1.4511 -2.25169,-3.3275 -2.25169,-5.6292 0,-2.3018 0.92569,-4.8286 2.77708,-7.5807 l 6.04203,-8.9692 2.73955,1.9889 m 0.56292,14.4859 c -10e-6,-1.401 -0.37529,-2.5644 -1.12584,-3.4901 -0.75057,-0.9257 -1.76383,-1.3885 -3.03978,-1.3886 -1.25094,10e-5 -2.27671,0.4754 -3.0773,1.4261 -0.77559,0.9257 -1.16338,2.0891 -1.16338,3.4901 0,1.3761 0.38779,2.5269 1.16338,3.4526 0.80059,0.9007 1.82636,1.351 3.0773,1.351 1.25093,0 2.25168,-0.4503 3.00225,-1.351 0.77557,-0.9257 1.16336,-2.089 1.16337,-3.4901" />
    <path
       inkscape:connector-curvature="0"
       id="path5357"
       style="font-size:37.52811432px;font-style:normal;font-variant:normal;font-weight:500;font-stretch:normal;line-height:125%;letter-spacing:0px;word-spacing:0px;fill:#000000;fill-opacity:1;stroke:none;font-family:Apple LiGothic;-inkscape-font-specification:Apple LiGothic Medium"
       d="m 559.92718,958.47324 0,3.45259 -7.35551,0 0,-3.45259 7.35551,0" />
    <path
       inkscape:connector-curvature="0"
       id="path5359"
       style="font-size:37.52811432px;font-style:normal;font-variant:normal;font-weight:500;font-stretch:normal;line-height:125%;letter-spacing:0px;word-spacing:0px;fill:#ff0000;fill-opacity:1;stroke:none;font-family:Apple LiGothic;-inkscape-font-specification:Apple LiGothic Medium"
       d="m 562.99041,953.06913 c 0.20015,-2.0265 0.91318,-3.6277 2.1391,-4.8036 1.22592,-1.17579 2.82712,-1.76379 4.8036,-1.76379 2.00149,0 3.60269,0.5755 4.8036,1.7263 1.20089,1.1509 1.80134,2.7146 1.80135,4.691 -10e-6,2.2017 -0.72556,3.7904 -2.17663,4.7661 1.95145,0.8506 2.92718,2.702 2.92719,5.5542 -1e-5,2.2016 -0.71305,3.9654 -2.1391,5.2914 -1.40106,1.301 -3.21492,1.9515 -5.44158,1.9515 -2.07656,0 -3.85289,-0.688 -5.32899,-2.0641 -1.47611,-1.376 -2.21416,-3.0773 -2.21416,-5.1038 l 3.8654,0 c -10e-6,1.1008 0.36277,2.0265 1.08831,2.7771 0.72554,0.7506 1.63872,1.1258 2.73956,1.1258 1.12583,0 2.01399,-0.4128 2.66449,-1.2384 0.6755,-0.8256 1.01325,-1.8264 1.01326,-3.0022 -10e-6,-0.9758 -0.36278,-1.8764 -1.08831,-2.7021 -0.70054,-0.8506 -1.50114,-1.2759 -2.4018,-1.2759 -0.10009,0 -0.20016,0.013 -0.30023,0.038 l -0.82562,0.075 0,-2.5895 0.48787,0 c 0.9507,0 1.76381,-0.3252 2.43933,-0.9757 0.70051,-0.6755 1.05077,-1.5011 1.05078,-2.4769 -10e-6,-2.3267 -1.05079,-3.4901 -3.15236,-3.4901 -2.07656,0 -3.11484,1.1634 -3.11483,3.4901 l -3.64023,0" />
    <path
       inkscape:connector-curvature="0"
       id="path5348"
       style="font-size:78.5645752px;font-style:normal;font-variant:normal;font-weight:500;font-stretch:normal;text-indent:0;text-align:start;text-decoration:none;line-height:125%;letter-spacing:0px;word-spacing:0px;text-transform:none;direction:ltr;block-progression:tb;writing-mode:lr-tb;text-anchor:start;color:#000000;fill:#ff0000;fill-opacity:1;fill-rule:nonzero;stroke:none;stroke-width:1;marker:none;visibility:visible;font-family:Apple LiGothic;-inkscape-font-specification:Apple LiGothic Medium"
       d="m 675.07853,868.20006 c -0.94284,-1.04746 -2.09512,-2.19975 -3.45684,-3.45684 l -3.84967,-3.45684 5.18527,-4.47818 4.08535,3.06402 c 0.68083,0.52382 1.62361,1.36184 2.82833,2.51406 0.15706,0.15719 0.39275,0.36669 0.70708,0.62852 l -5.49952,5.18526 m -24.43358,36.53253 c -4e-5,4.87101 -0.91663,8.35404 -2.74976,10.44909 -1.78083,2.04268 -5.36861,3.06402 -10.76335,3.06402 -1.78082,0 -3.1426,-0.0524 -4.08536,-0.15713 l -1.72842,-7.30651 c 2.77593,0.26189 5.23762,0.39283 7.38507,0.39282 2.14741,10e-6 3.50919,-0.8642 4.08536,-2.59263 0.62849,-1.78078 1.0475,-5.47331 1.25703,-11.0776 -3e-5,-1.57127 0.0262,-3.82345 0.0786,-6.75656 l -13.7488,0 c -0.52378,10.63243 -1.33562,18.33175 -2.43551,23.09799 -1.09991,4.71388 -2.95927,9.68963 -5.57808,14.92727 l -6.44233,-6.12804 c 2.67119,-5.08051 4.50437,-10.16101 5.49953,-15.24153 1.04751,-5.13286 1.57128,-11.73228 1.57129,-19.79827 -10e-6,-0.94274 -0.0262,-1.80695 -0.0786,-2.59263 -10e-6,-0.78561 -10e-6,-1.51888 0,-2.19981 l 0,-14.61301 34.17559,0 0,-11.39186 7.5422,0 0,11.39186 21.291,0 0,7.07081 -21.0553,0 c 0.62846,10.89432 1.93787,19.32691 3.92822,25.2978 3.14253,-4.50435 6.38986,-11.39184 9.74201,-20.66249 l 6.2066,3.45684 -1.57129,4.32106 c -3.35215,8.48499 -7.14944,15.68674 -11.39186,21.60525 0.89034,2.88071 2.01643,5.39478 3.37827,7.5422 1.36173,2.14744 2.33069,3.22115 2.90689,3.22115 1.30935,0 3.03777,-4.08535 5.18527,-12.25607 l 4.94956,6.67799 c -1.57136,4.92338 -3.09027,8.48497 -4.55674,10.68478 -1.46661,2.25218 -3.27359,3.37827 -5.42096,3.37828 -4.66156,-10e-6 -8.85166,-4.39963 -12.57033,-13.19885 -0.41906,0.36664 -0.75951,0.68089 -1.02134,0.94277 -5.39481,4.871 -11.10383,8.8516 -17.12708,11.94182 l -4.79243,-6.52086 c 8.1183,-3.5616 14.79628,-8.27547 20.03396,-14.14163 -2.67124,-7.33267 -4.39966,-16.70803 -5.18526,-28.12611 -0.1048,-1.15224 -0.23574,-2.54022 -0.39282,-4.16393 l -26.71196,0 0,8.24928 20.50536,0 c -0.20955,6.80896 -0.3143,13.87977 -0.31426,21.21244" />
    <path
       inkscape:connector-curvature="0"
       id="path5337"
       style="font-size:37.52811432px;font-style:normal;font-variant:normal;font-weight:500;font-stretch:normal;line-height:125%;letter-spacing:0px;word-spacing:0px;fill:#000000;fill-opacity:1;stroke:none;font-family:Apple LiGothic;-inkscape-font-specification:Apple LiGothic Medium"
       d="m 632.95846,962.60134 0,2.9647 -2.70202,0 0,4.3157 -3.56517,0 0,-4.3157 -10.35776,0 0,-1.6888 10.17012,-17.18781 3.75281,0 0,15.9119 2.70202,0 m -6.26719,-10.5079 -5.85439,10.5079 5.85439,0 0,-10.5079" />
    <path
       inkscape:connector-curvature="0"
       id="path5339"
       style="font-size:37.52811432px;font-style:normal;font-variant:normal;font-weight:500;font-stretch:normal;line-height:125%;letter-spacing:0px;word-spacing:0px;fill:#000000;fill-opacity:1;stroke:none;font-family:Apple LiGothic;-inkscape-font-specification:Apple LiGothic Medium"
       d="m 642.37215,958.47324 0,3.45259 -7.35551,0 0,-3.45259 7.35551,0" />
    <path
       inkscape:connector-curvature="0"
       id="path5341"
       style="font-size:37.52811432px;font-style:normal;font-variant:normal;font-weight:500;font-stretch:normal;line-height:125%;letter-spacing:0px;word-spacing:0px;fill:#000000;fill-opacity:1;stroke:none;font-family:Apple LiGothic;-inkscape-font-specification:Apple LiGothic Medium"
       d="m 655.8682,948.15293 -4.95371,7.1679 0.0751,0.075 c 0.70052,-0.3253 1.55115,-0.4879 2.55191,-0.4879 1.97647,0 3.60269,0.7506 4.87866,2.2517 1.27594,1.5011 1.91391,3.265 1.91393,5.2915 -2e-5,2.3517 -0.75058,4.2782 -2.25169,5.7793 -1.50113,1.5011 -3.44009,2.2517 -5.81686,2.2517 -2.27671,0 -4.17813,-0.7131 -5.70427,-2.1391 -1.50112,-1.4511 -2.25169,-3.3275 -2.25169,-5.6292 0,-2.3018 0.9257,-4.8286 2.77709,-7.5807 l 6.04202,-8.9692 2.73955,1.9889 m 0.56293,14.4859 c -2e-5,-1.401 -0.3753,-2.5644 -1.12585,-3.4901 -0.75057,-0.9257 -1.76383,-1.3885 -3.03978,-1.3886 -1.25094,10e-5 -2.27671,0.4754 -3.0773,1.4261 -0.77559,0.9257 -1.16338,2.0891 -1.16337,3.4901 -10e-6,1.3761 0.38778,2.5269 1.16337,3.4526 0.80059,0.9007 1.82636,1.351 3.0773,1.351 1.25093,0 2.25168,-0.4503 3.00225,-1.351 0.77557,-0.9257 1.16336,-2.089 1.16338,-3.4901" />
    <path
       inkscape:connector-curvature="0"
       id="path5343"
       style="font-size:37.52811432px;font-style:normal;font-variant:normal;font-weight:500;font-stretch:normal;line-height:125%;letter-spacing:0px;word-spacing:0px;fill:#000000;fill-opacity:1;stroke:none;font-family:Apple LiGothic;-inkscape-font-specification:Apple LiGothic Medium"
       d="m 669.78527,958.47324 0,3.45259 -7.35551,0 0,-3.45259 7.35551,0" />
    <path
       inkscape:connector-curvature="0"
       id="path5345"
       style="font-size:37.52811432px;font-style:normal;font-variant:normal;font-weight:500;font-stretch:normal;line-height:125%;letter-spacing:0px;word-spacing:0px;fill:#ff0000;fill-opacity:1;stroke:none;font-family:Apple LiGothic;-inkscape-font-specification:Apple LiGothic Medium"
       d="m 687.78469,962.60134 0,2.9647 -2.70202,0 0,4.3157 -3.56517,0 0,-4.3157 -10.35776,0 0,-1.6888 10.17012,-17.18781 3.75281,0 0,15.9119 2.70202,0 m -6.26719,-10.5079 -5.85439,10.5079 5.85439,0 0,-10.5079" />
    <path
       inkscape:connector-curvature="0"
       style="color:#000000;fill:#ff0000;fill-opacity:1;fill-rule:nonzero;stroke:none;stroke-width:1;marker:none;visibility:visible;display:inline;overflow:visible;enable-background:accumulate"
       d="m 384.8713,917.20208 59.5392,0 0,7.81493 -59.5392,0 z"
       id="rect4996" />
    <path
       inkscape:connector-curvature="0"
       style="color:#000000;fill:#ff0000;fill-opacity:1;fill-rule:nonzero;stroke:none;stroke-width:1;marker:none;visibility:visible;display:inline;overflow:visible;enable-background:accumulate"
       d="m 535.96328,856.35087 8.24971,0 0,72.37239 -8.24971,0 z"
       id="rect5001" />
    <path
       d="m 456.97315,454.02264 -16.9942,0 0,4.71848 -6.13786,0 0,-4.71848 -21.21396,0 0,4.71848 -6.02278,0 0,-4.71848 -16.91747,0 0,-5.71588 16.91747,0 0,-5.25554 6.02278,0 0,5.25554 21.21396,0 0,-5.02537 6.13786,0 0,5.02537 16.9942,0 0,5.71588 m -6.36806,3.7978 4.7952,3.68271"
       style="font-size:78.5645752px;font-style:normal;font-variant:normal;font-weight:500;font-stretch:normal;text-indent:0;text-align:start;text-decoration:none;line-height:125%;letter-spacing:0px;word-spacing:0px;text-transform:none;direction:ltr;block-progression:tb;writing-mode:lr-tb;text-anchor:start;color:#000000;fill:#ff0000;fill-opacity:1;fill-rule:nonzero;stroke:none;stroke-width:1;marker:none;visibility:visible;font-family:Apple LiGothic;-inkscape-font-specification:Apple LiGothic Medium"
       id="path5070"
       inkscape:connector-curvature="0"
       sodipodi:nodetypes="ccccccccccccccccccccccc" />
    <path
       d="m 459.54337,505.65737 -3.83616,5.1021 c -13.19645,-2.88991 -23.01701,-7.68511 -29.46171,-14.38561 l 0,18.22177 -5.98441,0 0,-17.72307 c -7.7235,7.39101 -17.36505,12.04555 -28.92466,13.96363 l -3.45254,-5.33226 c 9.36022,-1.35544 17.64632,-4.50109 24.85832,-9.43696 l 0,-0.15345 -21.40578,0 0,-5.75424 28.92466,0 0,-3.91288 -8.55464,0 0,-26.39279 7.71068,0 c 0.51145,-1.07407 1.11245,-2.87707 1.803,-5.40899 l 5.94604,1.15085 c -0.86957,2.3529 -1.41942,3.77228 -1.64954,4.25814 l 9.66712,0 0,26.39279 -9.01498,0 0.0767,3.91288 28.96301,0 0,5.75424 -21.59758,0 0,0.15345 c 7.0329,4.75685 15.67704,7.95364 25.93244,9.5904 m -30.30567,-35.67629 0,-4.48831 -11.73865,0 0,4.48831 11.73865,0 m 0,10.62616 0,-4.94865 -11.73865,0 0,4.94865 11.73865,0 m 26.54624,2.03317 -3.45255,4.71847 c -6.26579,-2.78758 -11.13771,-6.20176 -14.61577,-10.24255 l 3.83616,-3.52926 -3.83616,-4.06633 c 5.75418,-2.86429 10.05068,-6.76439 12.8895,-11.70029 l 4.7952,3.68271 c -3.35032,5.26837 -7.86419,9.34748 -13.54165,12.23735 3.88725,3.65717 8.529,6.6238 13.92527,8.8999 m -46.60936,-7.86413 c -2.81321,4.96146 -7.9153,9.43698 -15.30628,13.42656 l -3.83616,-4.56503 c 7.46771,-3.91286 12.41635,-8.01754 14.84594,-12.31408 -3.14567,-3.6571 -7.65955,-6.35519 -13.54165,-8.0943 l 3.22238,-4.7952 c 5.4729,1.50894 10.29367,4.41163 14.46232,8.70809 l -3.37582,4.25813 3.52927,3.37583"
       style="font-size:78.5645752px;font-style:normal;font-variant:normal;font-weight:500;font-stretch:normal;text-indent:0;text-align:start;text-decoration:none;line-height:125%;letter-spacing:0px;word-spacing:0px;text-transform:none;direction:ltr;block-progression:tb;writing-mode:lr-tb;text-anchor:start;color:#000000;fill:#000000;fill-opacity:1;fill-rule:nonzero;stroke:none;stroke-width:1;marker:none;visibility:visible;font-family:Apple LiGothic;-inkscape-font-specification:Apple LiGothic Medium"
       id="path5115"
       inkscape:connector-curvature="0"
       sodipodi:nodetypes="ccccccccccccccccccccccccccccccccccccccccccccccccccccccccc" />
  </g>
</svg>
